<svg width="3772" height="1200" viewBox="0 0 3772 1200" fill="none" xmlns="http://www.w3.org/2000/svg">
<rect width="3772" height="1200" rx="64" fill="white"/>
<path d="M1491.5 802.25H1372.5L1433 688.25L1495 396.75L1602 400.25L1491.5 802.25Z" fill="#06BEE1" stroke="#06BEE1"/>
<path d="M1124 393.75H1025L1124 803.25H1238.5L1309.5 535.75L1372 803.25L1434.5 687.75L1364.5 393.75H1257L1181 687.75L1124 393.75Z" fill="#5936CD" stroke="#5936CD"/>
<path d="M1573.7 640.6C1573.7 607.347 1579.88 578.153 1592.26 553.02C1605.02 527.887 1622.22 508.553 1643.88 495.02C1665.53 481.487 1689.7 474.72 1716.38 474.72C1739.19 474.72 1759.1 479.36 1776.12 488.64C1793.52 497.92 1806.86 510.1 1816.14 525.18V479.36H1915.32V803H1816.14V757.18C1806.47 772.26 1792.94 784.44 1775.54 793.72C1758.52 803 1738.61 807.64 1715.8 807.64C1689.5 807.64 1665.53 800.873 1643.88 787.34C1622.22 773.42 1605.02 753.893 1592.26 728.76C1579.88 703.24 1573.7 673.853 1573.7 640.6ZM1816.14 641.18C1816.14 616.433 1809.18 596.907 1795.26 582.6C1781.72 568.293 1765.1 561.14 1745.38 561.14C1725.66 561.14 1708.84 568.293 1694.92 582.6C1681.38 596.52 1674.62 615.853 1674.62 640.6C1674.62 665.347 1681.38 685.067 1694.92 699.76C1708.84 714.067 1725.66 721.22 1745.38 721.22C1765.1 721.22 1781.72 714.067 1795.26 699.76C1809.18 685.453 1816.14 665.927 1816.14 641.18ZM2051.45 373.8V803H1952.27V373.8H2051.45ZM2187.7 373.8V803H2088.52V373.8H2187.7ZM2529.86 635.96C2529.86 645.24 2529.28 654.907 2528.12 664.96H2303.66C2305.2 685.067 2311.58 700.533 2322.8 711.36C2334.4 721.8 2348.51 727.02 2365.14 727.02C2389.88 727.02 2407.09 716.58 2416.76 695.7H2522.32C2516.9 716.967 2507.04 736.107 2492.74 753.12C2478.82 770.133 2461.22 783.473 2439.96 793.14C2418.69 802.807 2394.91 807.64 2368.62 807.64C2336.91 807.64 2308.68 800.873 2283.94 787.34C2259.19 773.807 2239.86 754.473 2225.94 729.34C2212.02 704.207 2205.06 674.82 2205.06 641.18C2205.06 607.54 2211.82 578.153 2225.36 553.02C2239.28 527.887 2258.61 508.553 2283.36 495.02C2308.1 481.487 2336.52 474.72 2368.62 474.72C2399.94 474.72 2427.78 481.293 2452.14 494.44C2476.5 507.587 2495.44 526.34 2508.98 550.7C2522.9 575.06 2529.86 603.48 2529.86 635.96ZM2428.36 609.86C2428.36 592.847 2422.56 579.313 2410.96 569.26C2399.36 559.207 2384.86 554.18 2367.46 554.18C2350.83 554.18 2336.72 559.013 2325.12 568.68C2313.9 578.347 2306.94 592.073 2304.24 609.86H2428.36ZM2727.76 718.9V803H2677.3C2641.34 803 2613.31 794.3 2593.2 776.9C2573.09 759.113 2563.04 730.307 2563.04 690.48V561.72H2523.6V479.36H2563.04V400.48H2662.22V479.36H2727.18V561.72H2662.22V691.64C2662.22 701.307 2664.54 708.267 2669.18 712.52C2673.82 716.773 2681.55 718.9 2692.38 718.9H2727.76Z" fill="white"/>
</svg>
